<svg width="20" height="20" viewBox="0 0 20 20" fill="none" xmlns="http://www.w3.org/2000/svg">
<path d="M10 5.2C9.05065 5.2 8.12262 5.48152 7.33326 6.00895C6.54391 6.53638 5.92868 7.28603 5.56538 8.16312C5.20208 9.04021 5.10702 10.0053 5.29223 10.9364C5.47744 11.8675 5.9346 12.7228 6.60589 13.3941C7.27718 14.0654 8.13246 14.5226 9.06357 14.7078C9.99468 14.893 10.9598 14.7979 11.8369 14.4346C12.714 14.0713 13.4636 13.4561 13.9911 12.6667C14.5185 11.8774 14.8 10.9494 14.8 10C14.8 8.72696 14.2943 7.50606 13.3941 6.60589C12.4939 5.70571 11.273 5.2 10 5.2ZM10 13.2C9.3671 13.2 8.74841 13.0123 8.22218 12.6607C7.69594 12.3091 7.28579 11.8093 7.04359 11.2246C6.80138 10.6399 6.73801 9.99645 6.86149 9.37571C6.98496 8.75497 7.28973 8.18479 7.73726 7.73726C8.18479 7.28973 8.75497 6.98496 9.37571 6.86149C9.99645 6.73801 10.6399 6.80138 11.2246 7.04359C11.8093 7.28579 12.3091 7.69594 12.6607 8.22218C13.0123 8.74841 13.2 9.3671 13.2 10C13.1974 10.8479 12.8594 11.6603 12.2598 12.2598C11.6603 12.8594 10.8479 13.1974 10 13.2ZM14.4 0H5.6C4.11479 0 2.69041 0.589998 1.6402 1.6402C0.589998 2.69041 0 4.11479 0 5.6V14.4C0 15.8852 0.589998 17.3096 1.6402 18.3598C2.69041 19.41 4.11479 20 5.6 20H14.4C15.8852 20 17.3096 19.41 18.3598 18.3598C19.41 17.3096 20 15.8852 20 14.4V5.6C20 4.11479 19.41 2.69041 18.3598 1.6402C17.3096 0.589998 15.8852 0 14.4 0ZM18.4 14.4C18.4 14.9253 18.2965 15.4454 18.0955 15.9307C17.8945 16.416 17.5999 16.857 17.2284 17.2284C16.857 17.5999 16.416 17.8945 15.9307 18.0955C15.4454 18.2965 14.9253 18.4 14.4 18.4H5.6C5.07471 18.4 4.55457 18.2965 4.06927 18.0955C3.58396 17.8945 3.14301 17.5999 2.77157 17.2284C2.40014 16.857 2.1055 16.416 1.90448 15.9307C1.70346 15.4454 1.6 14.9253 1.6 14.4V5.6C1.6 4.53913 2.02143 3.52172 2.77157 2.77157C3.52172 2.02143 4.53913 1.6 5.6 1.6H14.4C14.9253 1.6 15.4454 1.70346 15.9307 1.90448C16.416 2.1055 16.857 2.40014 17.2284 2.77157C17.5999 3.14301 17.8945 3.58396 18.0955 4.06927C18.2965 4.55457 18.4 5.07471 18.4 5.6V14.4ZM16.4 4.8C16.4 5.03734 16.3296 5.26935 16.1978 5.46668C16.0659 5.66402 15.8785 5.81783 15.6592 5.90866C15.4399 5.99948 15.1987 6.02324 14.9659 5.97694C14.7331 5.93064 14.5193 5.81635 14.3515 5.64853C14.1837 5.48071 14.0694 5.26689 14.0231 5.03411C13.9768 4.80133 14.0005 4.56005 14.0913 4.34078C14.1822 4.12151 14.336 3.93409 14.5333 3.80224C14.7307 3.67038 14.9627 3.6 15.2 3.6C15.5183 3.6 15.8235 3.72643 16.0485 3.95147C16.2736 4.17652 16.4 4.48174 16.4 4.8Z" fill="#22333B"/>
</svg>
