<svg width="21" height="20" viewBox="0 0 21 20" fill="none" xmlns="http://www.w3.org/2000/svg">
<path d="M20.9802 12.262V20H16.494V12.78C16.494 10.9658 15.8449 9.7284 14.2216 9.7284C12.9821 9.7284 12.2438 10.5631 11.9198 11.3695C11.8013 11.6579 11.7709 12.0596 11.7709 12.4633V20H7.28264C7.28264 20 7.34346 7.77265 7.28264 6.50482H11.7709V8.41758L11.7415 8.46162H11.7709V8.41758C12.3665 7.5 13.4309 6.18813 15.8145 6.18813C18.7665 6.18813 20.9802 8.11766 20.9802 12.262ZM2.58885 0C1.05466 0 0.0500488 1.00671 0.0500488 2.33117C0.0500488 3.62626 1.0253 4.66338 2.53012 4.66338H2.55949C4.12513 4.66338 5.09724 3.62626 5.09724 2.33117C5.06997 1.00671 4.12618 0 2.5899 0H2.58885ZM0.316408 20H4.80257V6.50482H0.316408V20Z" fill="#22333B"/>
</svg>
